G04 EAGLE Gerber RS-274X export*
G75*
%MOMM*%
%FSLAX34Y34*%
%LPD*%
%INTop Copper*%
%IPPOS*%
%AMOC8*
5,1,8,0,0,1.08239X$1,22.5*%
G01*
G04 Define Apertures*
%ADD10C,1.408000*%
%ADD11C,1.408000*%
%ADD12C,1.575000*%
%ADD13C,1.348000*%
%ADD14R,1.408000X1.408000*%
%ADD15P,1.64956X8X22.5*%
%ADD16C,0.500000*%
%ADD17C,1.000000*%
D10*
X838200Y38100D03*
X863600Y38100D03*
X889000Y38100D03*
X914400Y38100D03*
X939800Y38100D03*
X965200Y38100D03*
X863600Y165100D03*
X889000Y165100D03*
X914400Y165100D03*
X939800Y165100D03*
X571500Y165100D03*
X596900Y165100D03*
X622300Y165100D03*
X647700Y165100D03*
X673100Y165100D03*
X698500Y165100D03*
X698500Y38100D03*
X673100Y38100D03*
X647700Y38100D03*
X622300Y38100D03*
X596900Y38100D03*
X571500Y38100D03*
X38100Y177800D03*
X63500Y177800D03*
X88900Y177800D03*
X114300Y177800D03*
X139700Y177800D03*
X165100Y177800D03*
X190500Y177800D03*
X190500Y25400D03*
X165100Y25400D03*
X139700Y25400D03*
X114300Y25400D03*
X88900Y25400D03*
X63500Y25400D03*
X38100Y25400D03*
X88900Y63500D03*
D11*
X165100Y63500D02*
X165100Y77580D01*
D10*
X381000Y40900D03*
X406400Y40900D03*
X431800Y40900D03*
X457200Y40900D03*
X482600Y40900D03*
X1193800Y38100D03*
X1193800Y63500D03*
X1193800Y88900D03*
X1193800Y114300D03*
X1193800Y139700D03*
X1193800Y165100D03*
D12*
X1066800Y165100D03*
X1091800Y165100D03*
X324865Y119235D03*
X324865Y94235D03*
D13*
X260915Y63500D03*
X260915Y88500D03*
X260915Y113500D03*
X260915Y138500D03*
D14*
X1066800Y63500D03*
X1143000Y63500D03*
D15*
X1143000Y165100D03*
D16*
X190000Y105000D02*
X190000Y95000D01*
X230000Y55000D01*
X232300Y55000D01*
X295000Y75000D02*
X295000Y90000D01*
X320000Y115000D01*
X324865Y119235D01*
D17*
X190000Y105000D03*
X232300Y55000D03*
X295000Y75000D03*
D16*
X1150000Y45000D02*
X1160000Y55000D01*
X1150000Y45000D02*
X1085000Y45000D01*
X1070000Y60000D01*
X1066800Y63500D01*
D17*
X610000Y15160D03*
D16*
X917092Y110300D02*
X991792Y185000D01*
X763368Y15160D02*
X610000Y15160D01*
X858508Y110300D02*
X917092Y110300D01*
X858508Y110300D02*
X763368Y15160D01*
X1160000Y55000D02*
X1160000Y126717D01*
X1101717Y185000D02*
X991792Y185000D01*
X1101717Y185000D02*
X1160000Y126717D01*
X90000Y40000D02*
X90000Y30000D01*
X90000Y40000D02*
X190000Y140000D01*
X240000Y140000D01*
X255000Y155000D01*
X490000Y155000D01*
X90000Y30000D02*
X88900Y25400D01*
D17*
X905000Y123800D03*
D16*
X521200Y123800D02*
X490000Y155000D01*
X521200Y123800D02*
X905000Y123800D01*
X115000Y50000D02*
X115000Y30000D01*
X115000Y50000D02*
X160000Y95000D01*
X325000Y40000D02*
X370000Y85000D01*
X650000Y85000D01*
X695000Y40000D01*
X115000Y30000D02*
X114300Y25400D01*
X695000Y40000D02*
X698500Y38100D01*
X173208Y95000D02*
X160000Y95000D01*
X228208Y40000D02*
X325000Y40000D01*
X228208Y40000D02*
X173208Y95000D01*
X155000Y45000D02*
X140000Y30000D01*
X155000Y45000D02*
X170000Y45000D01*
X175000Y50000D01*
X325000Y25000D02*
X375000Y75000D01*
X625000Y75000D01*
X645000Y55000D01*
X655000Y55000D01*
X670000Y40000D01*
X140000Y30000D02*
X139700Y25400D01*
X670000Y40000D02*
X673100Y38100D01*
X204066Y50000D02*
X175000Y50000D01*
X229066Y25000D02*
X325000Y25000D01*
X229066Y25000D02*
X204066Y50000D01*
X180000Y40000D02*
X170000Y30000D01*
X330000Y15000D02*
X375000Y60000D01*
X415000Y60000D01*
X430000Y45000D01*
X170000Y30000D02*
X165100Y25400D01*
X430000Y45000D02*
X431800Y40900D01*
X620000Y65000D02*
X645000Y40000D01*
X620000Y65000D02*
X455000Y65000D01*
X435000Y45000D01*
X645000Y40000D02*
X647700Y38100D01*
X435000Y45000D02*
X431800Y40900D01*
X199924Y40000D02*
X180000Y40000D01*
X224924Y15000D02*
X330000Y15000D01*
X224924Y15000D02*
X199924Y40000D01*
X185000Y160000D02*
X170000Y175000D01*
X185000Y160000D02*
X230000Y160000D01*
X255000Y185000D01*
X170000Y175000D02*
X165100Y177800D01*
D17*
X850000Y184740D03*
D16*
X849740Y185000D01*
X255000Y185000D01*
X165000Y150000D02*
X140000Y175000D01*
X165000Y150000D02*
X235000Y150000D01*
X260000Y175000D01*
X500000Y175000D01*
X525000Y150000D01*
X525000Y140000D01*
X802300Y35000D02*
X822300Y15000D01*
X1145000Y15000D01*
X1190000Y60000D01*
X140000Y175000D02*
X139700Y177800D01*
X1190000Y60000D02*
X1193800Y63500D01*
D17*
X525000Y140000D03*
X802300Y35000D03*
D16*
X400000Y25000D02*
X385000Y40000D01*
X400000Y25000D02*
X560000Y25000D01*
X570000Y35000D01*
X385000Y40000D02*
X381000Y40900D01*
X570000Y35000D02*
X571500Y38100D01*
X840000Y40000D02*
X855000Y55000D01*
X840000Y40000D02*
X838200Y38100D01*
D17*
X1080000Y132300D03*
D16*
X953234Y132300D01*
X875934Y55000D02*
X855000Y55000D01*
X875934Y55000D02*
X953234Y132300D01*
X1105000Y162460D02*
X1105000Y100000D01*
X1140000Y65000D01*
X1105000Y162460D02*
X1091800Y165100D01*
X1140000Y65000D02*
X1143000Y63500D01*
X620000Y40000D02*
X605000Y55000D01*
X495000Y55000D01*
X485000Y45000D01*
X620000Y40000D02*
X622300Y38100D01*
X485000Y45000D02*
X482600Y40900D01*
X995000Y100000D02*
X1105000Y100000D01*
X995000Y100000D02*
X950000Y55000D01*
X905000Y55000D01*
X890000Y40000D01*
X889000Y38100D01*
X325000Y60000D02*
X265000Y60000D01*
X325000Y60000D02*
X400000Y135000D01*
X565000Y137300D02*
X925000Y137300D01*
X265000Y60000D02*
X260915Y63500D01*
D17*
X400000Y135000D03*
X565000Y137300D03*
X925000Y137300D03*
M02*
