G04 EAGLE Gerber RS-274X export*
G75*
%MOMM*%
%FSLAX34Y34*%
%LPD*%
%INSoldermask Top*%
%IPPOS*%
%AMOC8*
5,1,8,0,0,1.08239X$1,22.5*%
G01*
G04 Define Apertures*
%ADD10C,2.703200*%
%ADD11C,1.611200*%
%ADD12C,1.611200*%
%ADD13C,1.778200*%
%ADD14C,1.551200*%
%ADD15R,1.611200X1.611200*%
%ADD16P,1.8695X8X22.5*%
D10*
X1409700Y177240D03*
X1409700Y25400D03*
X-25400Y177240D03*
X-25400Y25400D03*
D11*
X838200Y38100D03*
X863600Y38100D03*
X889000Y38100D03*
X914400Y38100D03*
X939800Y38100D03*
X965200Y38100D03*
X863600Y165100D03*
X889000Y165100D03*
X914400Y165100D03*
X939800Y165100D03*
X571500Y165100D03*
X596900Y165100D03*
X622300Y165100D03*
X647700Y165100D03*
X673100Y165100D03*
X698500Y165100D03*
X698500Y38100D03*
X673100Y38100D03*
X647700Y38100D03*
X622300Y38100D03*
X596900Y38100D03*
X571500Y38100D03*
X38100Y177800D03*
X63500Y177800D03*
X88900Y177800D03*
X114300Y177800D03*
X139700Y177800D03*
X165100Y177800D03*
X190500Y177800D03*
X190500Y25400D03*
X165100Y25400D03*
X139700Y25400D03*
X114300Y25400D03*
X88900Y25400D03*
X63500Y25400D03*
X38100Y25400D03*
X88900Y63500D03*
D12*
X165100Y63500D02*
X165100Y77580D01*
D11*
X381000Y40900D03*
X406400Y40900D03*
X431800Y40900D03*
X457200Y40900D03*
X482600Y40900D03*
X1193800Y38100D03*
X1193800Y63500D03*
X1193800Y88900D03*
X1193800Y114300D03*
X1193800Y139700D03*
X1193800Y165100D03*
D13*
X1066800Y165100D03*
X1091800Y165100D03*
X324865Y119235D03*
X324865Y94235D03*
D14*
X260915Y63500D03*
X260915Y88500D03*
X260915Y113500D03*
X260915Y138500D03*
D15*
X1066800Y63500D03*
X1143000Y63500D03*
D16*
X1143000Y165100D03*
M02*
