M48
;GenerationSoftware,Autodesk,EAGLE,9.7.0*%
;CreationDate,2025-06-05T22:24:42Z*%
FMAT,2
ICI,OFF
METRIC,TZ,000.000
T6C0.500
T5C0.840
T4C0.900
T3C1.016
T2C1.050
T1C2.500
%
G90
M71
T1
X140970Y17724
X140970Y2540
X-2540Y17724
X-2540Y2540
T2
X32486Y11923
X106680Y16510
X109180Y16510
X32486Y9424
T3
X114300Y16510
T4
X88900Y3810
X119380Y8890
X119380Y11430
X119380Y13970
X119380Y16510
X106680Y6350
X114300Y6350
X45720Y4090
X83820Y3810
X86360Y3810
X91440Y3810
X93980Y3810
X96520Y3810
X86360Y16510
X88900Y16510
X91440Y16510
X93980Y16510
X57150Y16510
X59690Y16510
X62230Y16510
X64770Y16510
X67310Y16510
X69850Y16510
X69850Y3810
X67310Y3810
X64770Y3810
X62230Y3810
X59690Y3810
X57150Y3810
X3810Y17780
X6350Y17780
X8890Y17780
X11430Y17780
X13970Y17780
X16510Y17780
X19050Y17780
X19050Y2540
X16510Y2540
X13970Y2540
X11430Y2540
X8890Y2540
X6350Y2540
X3810Y2540
X8890Y6350
X16510Y6350
X38100Y4090
X40640Y4090
X43180Y4090
X48260Y4090
X119380Y3810
X119380Y6350
T5
X26091Y6350
X26091Y8850
X26091Y11350
X26091Y13850
T6
X23230Y5500
X29500Y7500
X61000Y1516
X90500Y12380
X85000Y18474
X52500Y14000
X80230Y3500
X56500Y13730
X108000Y13230
X40000Y13500
X92500Y13730
X19000Y10500
M30